<svg width="20" height="20" viewBox="0 0 20 20" fill="none" xmlns="http://www.w3.org/2000/svg">
<path d="M13.834 3.35686C14.0529 3.13799 14.3127 2.96437 14.5987 2.84592C14.8846 2.72747 15.1911 2.6665 15.5007 2.6665C15.8102 2.6665 16.1167 2.72747 16.4026 2.84592C16.6886 2.96437 16.9484 3.13799 17.1673 3.35686C17.3862 3.57573 17.5598 3.83557 17.6783 4.12153C17.7967 4.4075 17.8577 4.714 17.8577 5.02353C17.8577 5.33306 17.7967 5.63955 17.6783 5.92552C17.5598 6.21149 17.3862 6.47132 17.1673 6.69019L5.91732 17.9402L1.33398 19.1902L2.58398 14.6069L13.834 3.35686Z" fill="white"/>
</svg>
