<svg width="32" height="32" viewBox="0 0 32 32" fill="none" xmlns="http://www.w3.org/2000/svg">
<path fill-rule="evenodd" clip-rule="evenodd" d="M12.5714 10.2857H3.42857C2.51885 10.2857 1.64686 10.6468 1.00457 11.2903C0.361142 11.9326 0 12.8046 0 13.7143C0 16.5074 0 21.2068 0 24C0 24.9097 0.361142 25.7817 1.00457 26.424C1.64686 27.0674 2.51885 27.4285 3.42857 27.4285V30.8571C3.42857 31.296 3.68 31.6971 4.07657 31.8868C4.472 32.0777 4.94285 32.024 5.28571 31.7497L10.6868 27.4285H16C17.8937 27.4285 19.4286 25.8937 19.4286 24V17.1428H21.3131L26.7143 21.464C27.0571 21.7383 27.528 21.792 27.9234 21.6011C28.32 21.4114 28.5714 21.0103 28.5714 20.5714V17.1428C29.4811 17.1428 30.3531 16.7817 30.9954 16.1383C31.6388 15.496 32 14.624 32 13.7143C32 10.9211 32 6.22171 32 3.42857C32 2.51885 31.6388 1.64685 30.9954 1.00457C30.3531 0.36114 29.4811 0 28.5714 0C25.2903 0 19.2811 0 16 0C15.0903 0 14.2183 0.36114 13.576 1.00457C12.9326 1.64685 12.5714 2.51885 12.5714 3.42857V10.2857ZM12.5714 12.5714H3.42857C3.12571 12.5714 2.83428 12.6914 2.62057 12.9063C2.40571 13.12 2.28571 13.4114 2.28571 13.7143C2.28571 16.5074 2.28571 21.2068 2.28571 24C2.28571 24.3028 2.40571 24.5943 2.62057 24.808C2.83428 25.0228 3.12571 25.1428 3.42857 25.1428H4.55657H4.57142C5.20228 25.1428 5.71428 25.6548 5.71428 26.2857V28.4788L9.57142 25.3931C9.67428 25.3108 9.78742 25.2491 9.90513 25.208L9.9097 25.2057C10.0274 25.1657 10.1543 25.1428 10.2857 25.1428H16C16.6308 25.1428 17.1428 24.6308 17.1428 24V17.1428H16C14.1063 17.1428 12.5714 15.608 12.5714 13.7143V12.5714ZM8.01942 21.7143H11.4091L12.0926 23.3074C12.3406 23.8868 13.0137 24.1565 13.5931 23.9074C14.1726 23.6594 14.4423 22.9863 14.1931 22.4068L10.7646 14.4068C10.5851 13.9863 10.1714 13.7143 9.71428 13.7143C9.25713 13.7143 8.84342 13.9863 8.66399 14.4068L5.23542 22.4068C4.98628 22.9863 5.25599 23.6594 5.83542 23.9074C6.41485 24.1565 7.08799 23.8868 7.33599 23.3074L8.01942 21.7143ZM8.99885 19.4286H10.4297L9.71428 17.7588L8.99885 19.4286ZM27.4285 14.8571H28.5714C28.8743 14.8571 29.1657 14.7371 29.3794 14.5223C29.5943 14.3086 29.7143 14.0171 29.7143 13.7143C29.7143 10.9211 29.7143 6.22171 29.7143 3.42857C29.7143 3.12571 29.5943 2.83428 29.3794 2.62057C29.1657 2.40571 28.8743 2.28571 28.5714 2.28571H16C15.6971 2.28571 15.4057 2.40571 15.192 2.62057C14.9771 2.83428 14.8571 3.12571 14.8571 3.42857V13.7143C14.8571 14.3451 15.3691 14.8571 16 14.8571H21.7143C21.8457 14.8571 21.9725 14.88 22.0903 14.92L22.0948 14.9223C22.2125 14.9634 22.3257 15.0251 22.4285 15.1074L26.2857 18.1931V16V15.9703L26.288 15.936C26.32 15.3348 26.8194 14.8571 27.4285 14.8571ZM21.1645 5.71428H20.0217C20.0068 5.71428 19.992 5.71428 19.9771 5.71428H18.8571C18.2263 5.71428 17.7143 6.22628 17.7143 6.85714C17.7143 7.48799 18.2263 7.99999 18.8571 7.99999H19.1748C19.5508 9.09028 19.9817 10.1074 20.6228 11.0034C20.3177 11.1886 19.976 11.3566 19.592 11.504C19.0023 11.7291 18.7074 12.3908 18.9326 12.9794C19.1577 13.5691 19.8194 13.864 20.408 13.6388C21.1383 13.36 21.7565 13.0297 22.2857 12.6571C22.8148 13.0297 23.4331 13.36 24.1634 13.6388C24.752 13.864 25.4137 13.5691 25.6388 12.9794C25.864 12.3908 25.5691 11.7291 24.9794 11.504C24.5954 11.3566 24.2537 11.1886 23.9485 11.0034C24.5897 10.1074 25.0205 9.08913 25.3965 7.99999H25.7143C26.3451 7.99999 26.8571 7.48799 26.8571 6.85714C26.8571 6.22628 26.3451 5.71428 25.7143 5.71428H24.5943C24.5794 5.71428 24.5645 5.71428 24.5497 5.71428H23.4503L23.4285 4.54971C23.416 3.91886 22.8948 3.41714 22.264 3.42857C21.6331 3.44114 21.1314 3.96228 21.1428 4.59313L21.1645 5.71428ZM22.9691 7.99999H21.6023C21.7931 8.48342 22.0114 8.94514 22.2857 9.37371C22.56 8.94514 22.7783 8.48342 22.9691 7.99999Z" fill="white"/>
</svg>
